<svg width="54" height="60" viewBox="0 0 54 60" fill="none" xmlns="http://www.w3.org/2000/svg">
<path d="M46.3546 3.51562C45.0743 3.51562 43.8741 3.86121 42.839 4.46156V1.75781C42.839 0.787031 42.0519 0 41.0812 0H12.9562C11.9853 0 11.1982 0.787031 11.1982 1.75781V4.48301C10.1549 3.8693 8.94096 3.51562 7.64545 3.51562C3.76842 3.51562 0.614197 6.66984 0.614197 10.5469C0.614197 13.5041 1.49052 16.3615 3.14838 18.8102C5.97072 22.9789 9.45107 24.0607 12.331 25.2127C13.9915 29.348 17.3495 32.6252 21.5384 34.1769L20.2422 42.4219H19.9874C17.0796 42.4219 14.714 44.7875 14.714 47.6953V56.4844H12.9562C11.9854 56.4844 11.1983 57.2714 11.1983 58.2422C11.1983 59.213 11.9854 60 12.9562 60H41.0812C42.0519 60 42.839 59.213 42.839 58.2422C42.839 57.2714 42.0519 56.4844 41.0812 56.4844H39.3233V47.6953C39.3233 44.7875 36.9577 42.4219 34.0499 42.4219H33.7951L32.499 34.177C36.694 32.623 40.0558 29.3386 41.7138 25.1948C44.4344 24.1066 48.0005 23.0217 50.8518 18.8102C52.5096 16.3615 53.386 13.504 53.386 10.5469C53.3858 6.66984 50.2316 3.51562 46.3546 3.51562ZM11.1852 20.968C6.8992 19.2536 4.12982 15.1631 4.12982 10.5469C4.12982 8.60836 5.70693 7.03125 7.64545 7.03125C9.58396 7.03125 11.1611 8.60836 11.1611 10.5469C11.1611 10.6705 11.1741 10.791 11.1983 10.9073V19.3359C11.1983 19.9009 11.2287 20.4588 11.2868 21.0087L11.1852 20.968ZM35.8077 56.4844H18.2296V52.9688H35.8077V56.4844ZM34.0499 45.9375C35.0192 45.9375 35.8077 46.7261 35.8077 47.6953V49.4531H18.2296V47.6953C18.2296 46.7261 19.0181 45.9375 19.9874 45.9375C20.9411 45.9375 31.8134 45.9375 34.0499 45.9375ZM23.8009 42.4219L24.9641 35.023C25.6368 35.1107 26.3224 35.1562 27.0187 35.1562C27.7149 35.1562 28.4005 35.1105 29.0732 35.023L30.2364 42.4219H23.8009ZM39.3233 19.3359C39.3233 26.1207 33.8035 31.6406 27.0187 31.6406C20.2338 31.6406 14.714 26.1207 14.714 19.3359V10.5469H39.3233V19.3359ZM39.3233 7.03125H14.714V3.51562H39.3233V7.03125ZM42.8147 20.968L42.7522 20.993C42.8092 20.4483 42.8388 19.8955 42.8388 19.3359V10.5469C42.839 8.60836 44.4161 7.03125 46.3546 7.03125C48.2931 7.03125 49.8702 8.60836 49.8702 10.5469C49.8702 15.1631 47.1008 19.2537 42.8147 20.968Z" fill="#242424"/>
</svg>
