<svg width="61" height="56" viewBox="0 0 61 56" fill="none" xmlns="http://www.w3.org/2000/svg">
<path d="M56.0147 29.102V1.77976C56.0147 0.805015 55.2244 0.0147705 54.2497 0.0147705H6.96186C5.98711 0.0147705 5.19687 0.805015 5.19687 1.77976V31.2801C4.34544 31.4042 3.51307 31.7347 2.77671 32.2814C0.4554 33.9274 -0.0936297 37.6111 1.8508 39.8828L9.80067 49.5205C14.7217 55.2799 19.9492 55.9855 27.7206 55.9855C34.3896 55.9855 37.3711 56.015 43.1832 54.6906L48.8427 53.337C49.7604 54.6185 51.2172 55.4486 52.855 55.4486H55.643C58.4131 55.4486 60.6667 53.0745 60.6667 50.1562V34.3785C60.6668 31.5921 58.6117 29.3032 56.0147 29.102ZM48.0814 32.7327L45.7297 31.5383C41.8631 29.5866 37.3926 29.5143 33.4649 31.3404C32.3934 31.7619 30.0562 33.176 28.8438 33.1287H20.6835C17.9767 33.1287 15.7745 35.3308 15.7745 38.0377V39.3249C15.7593 39.3089 15.7434 39.2937 15.7284 39.2774L9.90104 32.9521C9.54839 32.5693 9.15221 32.249 8.72696 31.992V14.4811H23.1708V20.9511C23.1708 21.9258 23.9611 22.7161 24.9358 22.7161H36.073C37.0478 22.7161 37.838 21.9258 37.838 20.9511V14.4811H52.4848V29.1019C50.4226 29.2612 48.703 30.7365 48.0814 32.7327ZM26.7007 14.4811H34.3079V19.1861H26.7007V14.4811ZM52.4847 10.9511H37.838V3.54475H52.4848V10.9511H52.4847ZM34.308 3.54475V10.9512H26.7008V3.54475H34.308ZM23.1707 3.54475V10.9512H8.72685V3.54475H23.1707ZM42.364 51.2569C36.9949 52.4866 33.7613 52.4368 27.7839 52.4368C20.4886 52.4368 16.9637 52.3189 12.5239 47.2741L4.57406 37.6365C3.19125 35.8358 5.69589 33.7102 7.30485 35.3436L13.1323 41.6691C14.6724 43.2942 16.6105 44.1886 18.9992 44.2412H35.1557C36.1304 44.2412 36.9207 43.4509 36.9207 42.4762C36.9207 41.5014 36.1304 40.7112 35.1557 40.7112H19.3043V38.0375C19.3043 37.2771 19.9229 36.6584 20.6834 36.6584H28.8437C30.6821 36.7901 33.3356 35.255 34.9531 34.5411C37.8947 33.1734 41.243 33.2275 44.1351 34.6873L47.8315 36.5648V49.949L42.364 51.2569ZM57.1369 50.1561C57.1369 51.1279 56.4668 51.9185 55.6431 51.9185H52.8551C52.0315 51.9185 51.3615 51.1279 51.3615 50.1561V34.3785C51.3615 33.4067 52.0316 32.616 52.8551 32.616H55.6431C56.4668 32.616 57.1369 33.4066 57.1369 34.3785V50.1561Z" fill="#242424"/>
</svg>
